<svg viewBox="0 0 50 50" xmlns="http://www.w3.org/2000/svg" xmlns:xlink="http://www.w3.org/1999/xlink"><style>:root>svg{display:none}:root>svg:target{display:block}</style><svg viewBox="0 0 65 65" id="cog"><path d="M51.5 36.3l4.3 2.4c.5.2.7.8.5 1.3a24 24 0 01-5.6 9.3 1 1 0 01-1.4.2L45 47.1a19.4 19.4 0 01-6.1 3.5v4.9c0 .5-.4 1-.9 1.1a26 26 0 01-11.1 0 1 1 0 01-.9-1.1v-4.9a20 20 0 01-6.2-3.5l-4.3 2.4a1 1 0 01-1.4-.1c-2.6-2.7-4.5-6-5.5-9.6-.1-.5.1-.9.5-1.2l4.4-2.3c-.4-2.3-.4-4.7 0-7L9.2 27c-.5-.2-.8-.9-.5-1.4a24 24 0 015.6-9.3 1 1 0 011.4-.2l4.3 2.4c1.8-1.5 3.8-2.7 6-3.5v-4.9c0-.5.4-1 .9-1.1A26 26 0 0138 9c.6.1 1 .5 1 1.1V15c2.2.8 4.3 2 6.1 3.5l4.3-2.4a1 1 0 011.4.1c2.6 2.7 4.5 6 5.5 9.6.1.5-.1.9-.5 1.2l-4.3 2.4a20 20 0 010 6.9zm-11.7-3.5c0-4.2-3.5-7.5-7.7-7.5s-7.7 3.4-7.7 7.5 3.5 7.5 7.7 7.5h.1c4.2 0 7.6-3.4 7.6-7.5z"/></svg><svg viewBox="0 0 32 32" id="folder-open"><path d="M26 30l6-16H6L0 30zM4 12L0 30V4h9l4 4h13v4z"/></svg><svg viewBox="0 0 48 48" id="question"><path d="M23.9 34.4h-2.2a.9.9 0 01-1-.9 15.4 15.4 0 01.7-6 10.3 10.3 0 012.4-3.8c1-1.2 2.3-2.2 3.4-3.4l2-1.8a4.8 4.8 0 00.4-5.9 6.4 6.4 0 00-9.7-1.5 7.5 7.5 0 00-2 3.8l-.3 1.3a1 1 0 01-1.2.9l-3.6-.5-1-.1a.9.9 0 01-.7-1c.5-3.6 1.8-7 5-9.2a12 12 0 015.7-2.2 15.9 15.9 0 017.7.8 10.8 10.8 0 017 7.7 9.8 9.8 0 01-1.8 8.7A29.3 29.3 0 0131 25l-2.2 2.1A5.8 5.8 0 0027 31l-.1 2.3a1 1 0 01-1 1h-2.1zm0 2.6h2.5a.9.9 0 011 1v5.1a.9.9 0 01-1 1h-5a.9.9 0 01-1-1v-5c0-.8.3-1 1-1z"/></svg><svg viewBox="0 0 18 18" id="search"><path d="M12.5 11h-.8l-.3-.3c1-1.1 1.6-2.6 1.6-4.2a6.5 6.5 0 10-13 0C0 10.1 2.9 13 6.5 13c1.6 0 3.1-.6 4.2-1.6l.3.3v.8l5 5 1.5-1.5-5-5zm-6 0C4 11 2 9 2 6.5S4 2 6.5 2 11 4 11 6.5 9 11 6.5 11z" fill-rule="evenodd"/></svg></svg>