<svg data-name="Слой 1" xmlns="http://www.w3.org/2000/svg" viewBox="0 0 48 48"><path d="M23.85 34.37h-2.12a.88.88 0 0 1-.94-.86 15.37 15.37 0 0 1 .64-5.95 10.27 10.27 0 0 1 2.32-3.87c1.13-1.16 2.34-2.23 3.5-3.36.63-.61 1.26-1.22 1.86-1.86a4.83 4.83 0 0 0 .51-5.82 6.43 6.43 0 0 0-9.72-1.51 7.47 7.47 0 0 0-2 3.79c-.11.42-.18.85-.27 1.28a.93.93 0 0 1-1.19.85l-3.61-.44c-.32 0-.64-.07-1-.13a.86.86 0 0 1-.73-.94c.48-3.7 1.78-7 4.94-9.25a12 12 0 0 1 5.81-2.16 15.87 15.87 0 0 1 7.67.8 10.76 10.76 0 0 1 7 7.62 9.84 9.84 0 0 1-1.83 8.7A29.26 29.26 0 0 1 31 25.15c-.75.68-1.48 1.38-2.21 2.09A5.76 5.76 0 0 0 27.1 31c-.05.77-.08 1.55-.12 2.32a.93.93 0 0 1-1 1c-.71.06-1.42.05-2.13.05zM23.87 37h2.48a.89.89 0 0 1 1 1v5.11a.88.88 0 0 1-1 .92h-5a.9.9 0 0 1-1-1v-5c0-.69.34-1 1-1z"/></svg>